# xmcd
#
# Track frame offsets:
# 150
# 17523
# 34970
# 46937
# 59962
# 73602
# 87809
# 104273
# 114589
# 127928
# 144823
# 159386
# 175193
# 187558
# 202335
# 217890
# 232338
# 245136
# 260201
# 275793
#
# Disc length: 3838 seconds
#
#
# Revision: 0
# Processed by: cddbd v1.5.1PL0 Copyright (c) Steve Scherf et al.
# Submitted via: FreeRIP 2.942 
#
DISCID=2b0efc14
DTITLE=Vários - Clima de Rodeio
DYEAR=2005
DGENRE=Country
TTITLE0=Dallas Company - Clima de rodeio
TTITLE1=Rick e Renner - Nóis tropica, mas não cai
TTITLE2=Edson e Hudson - Festa louca
TTITLE3=Gian e Giovani - Cai no laço
TTITLE4=Daniel - Peão apaixonado
TTITLE5=Sérgio Paulo e Luizinho - Me dá, me dá
TTITLE6=Cezar e Paulinho - Nóis é cowboy
TTITLE7=Ataíde e Alexandre - amor carrapicho
TTITLE8=Fred e Pedrito - Pinha no pinheiro
TTITLE9=Zeze e Luciano - Mexe que é bom
TTITLE10=Jean e Jefferson - A maior festa
TTITLE11=Sérgio Paulo e Luizinho - O bicho vai pegar
TTITLE12=Edson e Hudson - Mulher, cerveja e viola
TTITLE13=Ataíde e Alexandre - Barretão
TTITLE14=César e Paulinho - Tchaca, tchaca na butchaca
TTITLE15=Rio Negro e Solimões - De São Paulo a Belém
TTITLE16=Walmir e Wilmar - Mulher, cachaça e rodeio
TTITLE17=Daniel - Eu me amarrei
TTITLE18=Leandro e Leonardo - Festa de rodeio
TTITLE19=Billy e Bruno - Arrochando o nó
EXTD=
EXTT0=
EXTT1=
EXTT2=
EXTT3=
EXTT4=
EXTT5=
EXTT6=
EXTT7=
EXTT8=
EXTT9=
EXTT10=
EXTT11=
EXTT12=
EXTT13=
EXTT14=
EXTT15=
EXTT16=
EXTT17=
EXTT18=
EXTT19=
PLAYORDER=
